Coordinates
version=1
nRows=39
nColumns=18
inDegrees=yes

Units are S.I. units (second, meters, Newtons, ...)
Angles are in degrees.

endheader
time	pelvis_tilt	pelvis_list	pelvis_rotation	pelvis_tx	pelvis_ty	pelvis_tz	hip_flexion_r	hip_adduction_r	hip_rotation_r	knee_angle_r	ankle_angle_r	hip_flexion_l	hip_adduction_l	hip_rotation_l	knee_angle_l	ankle_angle_l	lumbar_extension
      3.58000000	     -9.97615099	     -3.59674537	      5.21603315	      1.85274475	      0.80516816	      0.30051291	     42.78998674	     10.45278102	      0.00000000	    -49.26034108	     38.38198252	     30.83383665	     -3.99653480	      0.00000000	    -84.05745490	     18.85235101	     -5.00000214
      3.59000000	    -10.01283757	     -4.12500862	      4.96705677	      1.86278026	      0.80612847	      0.30391606	     41.90900607	     11.50220840	      0.00000000	    -48.75314617	     38.93949200	     32.66044425	     -5.19691646	      0.00000000	    -85.12285031	     19.00584352	     -5.00000214
      3.60000000	     -9.86739633	     -4.65221855	      4.72730100	      1.87375155	      0.80753378	      0.30721773	     40.65538524	     12.56278122	      0.00000000	    -48.02965446	     39.73841816	     34.10578796	     -6.42318308	      0.00000000	    -85.75509334	     19.26986711	     -5.00000214
      3.61000000	     -9.74058439	     -5.03433827	      4.47739176	      1.88460313	      0.80877295	      0.30974721	     39.50400045	     13.38633175	      0.00000000	    -47.53186012	     40.50524136	     35.50143327	     -7.34624959	      0.00000000	    -86.11263591	     19.71940754	     -5.00000214
      3.62000000	     -9.65086957	     -5.35144604	      4.20348589	      1.89524478	      0.80982382	      0.31192080	     38.45174738	     14.10231723	      0.00000000	    -47.16933229	     41.00128264	     36.92098696	     -8.12516264	      0.00000000	    -86.25198727	     20.14302524	     -5.00000214
      3.63000000	     -9.46566530	     -5.63900959	      3.92659141	      1.90641022	      0.81111340	      0.31386267	     37.11745672	     14.75760030	      0.00000000	    -46.57796152	     41.72281021	     38.08118295	     -8.83966958	      0.00000000	    -86.03679365	     20.91874217	     -5.00000214
      3.64000000	     -9.31179585	     -5.89299504	      3.62172527	      1.91742346	      0.81225619	      0.31560256	     35.80270002	     15.34810683	      0.00000000	    -45.98573276	     42.34755206	     39.24882791	     -9.46926456	      0.00000000	    -85.61679118	     21.72455342	     -5.00000214
      3.65000000	     -9.15153892	     -6.12493599	      3.30801984	      1.92852616	      0.81337986	      0.31716950	     34.39864852	     15.88078492	      0.00000000	    -45.27749945	     42.97779991	     40.33290403	    -10.03769861	      0.00000000	    -84.94452344	     22.56305677	     -5.00000214
      3.66000000	     -8.99059288	     -6.34991152	      2.99487634	      1.93965712	      0.81440420	      0.31863258	     32.93103367	     16.37905034	      0.00000000	    -44.46987822	     43.58068806	     41.37026181	    -10.57836242	      0.00000000	    -84.07585870	     23.28252369	     -5.00000214
      3.67000000	     -8.83025494	     -6.56533403	      2.68044622	      1.95081864	      0.81533301	      0.32000478	     31.42008327	     16.84094858	      0.00000000	    -43.57970079	     44.17713505	     42.34653142	    -11.08960976	      0.00000000	    -83.01553588	     23.85763364	     -5.00000214
      3.68000000	     -8.68350225	     -6.75119112	      2.36451765	      1.96192267	      0.81610780	      0.32120076	     29.91746529	     17.23596883	      0.00000000	    -42.67198129	     44.77956690	     43.26899026	    -11.52987849	      0.00000000	    -81.76959055	     24.32770890	     -5.00000214
      3.69000000	     -8.54666869	     -6.91586695	      2.05026523	      1.97297760	      0.81669539	      0.32225176	     28.44503614	     17.57943930	      0.00000000	    -41.79684879	     45.39537424	     44.13403630	    -11.91544437	      0.00000000	    -80.35513929	     24.78050659	     -5.00000214
      3.70000000	     -8.41938804	     -7.02967419	      1.73730641	      1.98400891	      0.81714703	      0.32303331	     27.01358959	     17.83441154	      0.00000000	    -41.00274475	     45.93249673	     44.90451783	    -12.18061227	      0.00000000	    -78.74197365	     25.17421917	     -5.00000214
      3.71000000	     -8.28918744	     -7.15946693	      1.46900492	      1.99504478	      0.81740528	      0.32375589	     25.60962376	     18.08822934	      0.00000000	    -40.29432649	     46.42449092	     45.62128822	    -12.44728161	      0.00000000	    -76.98778028	     25.65091975	     -5.00000214
      3.72000000	     -8.16879235	     -7.25626578	      1.21657848	      2.00602947	      0.81747962	      0.32422563	     24.26443669	     18.27713309	      0.00000000	    -39.73120121	     46.81995929	     46.25179288	    -12.61556890	      0.00000000	    -75.06090184	     26.14243962	     -5.00000214
      3.73000000	     -8.06425946	     -7.35578231	      1.00625511	      2.01692003	      0.81730211	      0.32461307	     22.98324126	     18.45648022	      0.00000000	    -39.27146593	     47.18049765	     46.84697621	    -12.76058500	      0.00000000	    -73.00748236	     26.69956541	     -5.00000214
      3.74000000	     -7.98244766	     -7.48651193	      0.81509515	      2.02770265	      0.81690771	      0.32498574	     21.77180170	     18.65767940	      0.00000000	    -38.88493348	     47.54912643	     47.42386153	    -12.93098350	      0.00000000	    -70.84696457	     27.38140345	     -5.00000214
      3.75000000	     -8.03889562	     -7.49822992	      0.59463974	      2.03767928	      0.81603943	      0.32473561	     20.99799538	     18.67349081	      0.00000000	    -38.99033842	     47.76938535	     48.10750077	    -12.85683407	      0.00000000	    -68.56823715	     27.69078159	     -5.00000214
      3.76000000	     -8.10531672	     -7.51050281	      0.38757194	      2.04759704	      0.81499899	      0.32435473	     20.28402528	     18.67114564	      0.00000000	    -39.16528698	     48.24211402	     48.72706794	    -12.75964279	      0.00000000	    -66.18601301	     28.46636131	     -5.00000214
      3.77000000	     -8.28732037	     -7.56591874	      0.11872625	      2.05694240	      0.81364546	      0.32415660	     19.84282623	     18.72863320	      0.00000000	    -39.51990022	     48.38533862	     49.49699552	    -12.74310009	      0.00000000	    -63.77039811	     28.58697338	     -5.00000214
      3.78000000	     -8.69432707	     -7.22539841	     -0.17907900	      2.06493399	      0.81163408	      0.32207151	     20.21566200	     18.19521541	      0.00000000	    -40.93928114	     48.96258542	     50.35909265	    -12.01804365	      0.00000000	    -61.15245079	     29.00507122	     -5.00000214
      3.79000000	     -9.08487294	     -7.03617925	     -0.43954507	      2.07314773	      0.80968057	      0.32056233	     20.47041461	     17.87862339	      0.00000000	    -42.10383589	     49.29179019	     51.21827087	    -11.54479830	      0.00000000	    -58.52563020	     28.86272967	     -5.00000214
      3.80000000	     -9.42753083	     -6.89370271	     -0.61650320	      2.08174147	      0.80789577	      0.31909872	     20.58097349	     17.61012509	      0.00000000	    -43.08822321	     49.56272898	     51.96157286	    -11.10231023	      0.00000000	    -55.85475082	     28.52899502	     -5.00000214
      3.81000000	     -9.79894728	     -6.76947035	     -0.72434816	      2.09031608	      0.80602585	      0.31764474	     20.77784882	     17.37408000	      0.00000000	    -44.13989665	     49.81724495	     52.72407566	    -10.64390080	      0.00000000	    -53.22026135	     27.90103151	     -5.00000214
      3.82000000	    -10.09542240	     -6.70670580	     -0.74333547	      2.09940187	      0.80443060	      0.31627949	     20.75290012	     17.20383712	      0.00000000	    -44.94855267	     49.96911341	     53.32612429	    -10.21434244	      0.00000000	    -50.59356812	     27.18675586	     -5.00000214
      3.83000000	    -10.34069140	     -6.68847849	     -0.68405257	      2.10886835	      0.80302234	      0.31494595	     20.57847286	     17.07759359	      0.00000000	    -45.59961863	     50.02245928	     53.81451323	     -9.78460611	      0.00000000	    -48.03516047	     26.40318324	     -5.00000214
      3.84000000	    -10.48530274	     -6.72483175	     -0.51927068	      2.11902116	      0.80191721	      0.31362392	     20.13338876	     16.99805646	      0.00000000	    -45.99778304	     49.99045690	     54.10471553	     -9.34864545	      0.00000000	    -45.56148133	     25.81555863	     -5.00000214
      3.85000000	    -10.59148877	     -6.84071619	     -0.39314589	      2.12950668	      0.80090015	      0.31256380	     19.59208338	     17.01957089	      0.00000000	    -46.33841540	     49.91197937	     54.32475484	     -9.03395194	      0.00000000	    -43.31378194	     25.25333725	     -5.00000214
      3.86000000	    -10.63583702	     -6.89084761	     -0.17263962	      2.14048417	      0.80014310	      0.31104693	     18.90558193	     16.91698670	      0.00000000	    -46.58654428	     49.70121572	     54.36332179	     -8.56673868	      0.00000000	    -41.18801190	     24.41868479	     -5.00000214
      3.87000000	    -10.62323201	     -6.99274783	      0.06556800	      2.15190475	      0.79952527	      0.30962797	     18.09650356	     16.87133899	      0.00000000	    -46.76102521	     49.22855005	     54.34009053	     -8.16594155	      0.00000000	    -39.42083029	     23.03513532	     -5.00000214
      3.88000000	    -10.47750984	     -7.10331611	      0.34548632	      2.16424331	      0.79920115	      0.30811674	     16.98454101	     16.81718055	      0.00000000	    -46.73728869	     48.87019020	     54.08917359	     -7.77375099	      0.00000000	    -37.99566259	     22.58818576	     -5.00000214
      3.89000000	    -10.22318882	     -7.27449489	      0.69524919	      2.17734710	      0.79911590	      0.30677335	     15.62453696	     16.85080210	      0.00000000	    -46.52498567	     48.27200870	     53.72447927	     -7.45585368	      0.00000000	    -37.02790914	     22.06772729	     -5.00000214
      3.90000000	     -9.83825289	     -7.50320775	      1.10844893	      2.19137630	      0.79930614	      0.30560082	     13.95797768	     16.96914512	      0.00000000	    -46.06041665	     47.48686600	     53.22282279	     -7.21909429	      0.00000000	    -36.56208437	     21.71799316	     -5.00000214
      3.91000000	     -9.32050501	     -7.71054626	      1.57775154	      2.20621394	      0.79979746	      0.30422377	     12.04459997	     17.05076617	      0.00000000	    -45.46295003	     46.61426822	     52.48443135	     -6.96400463	      0.00000000	    -36.44308440	     21.61032729	     -5.00000214
      3.92000000	     -8.63221287	     -7.92859789	      2.17924257	      2.22216653	      0.80057825	      0.30268716	      9.75861474	     17.16049774	      0.00000000	    -44.58522740	     45.54116447	     51.50739379	     -6.68701651	      0.00000000	    -36.71085576	     21.70909570	     -5.00000214
      3.93000000	     -7.73980993	     -8.14305227	      2.87833997	      2.23932596	      0.80168828	      0.30095038	      7.05594264	     17.28133712	      0.00000000	    -43.39926289	     44.22155431	     50.21909164	     -6.42366939	      0.00000000	    -37.31855737	     22.06065356	     -5.00000214
      3.94000000	     -6.59946946	     -8.35546237	      3.73945543	      2.25791394	      0.80312474	      0.29893151	      3.83014448	     17.44414264	      0.00000000	    -41.78442895	     42.67125988	     48.58156393	     -6.16095856	      0.00000000	    -38.24382923	     22.83867320	     -5.00000214
      3.95000000	     -5.25719243	     -8.55266764	      4.70430940	      2.27760952	      0.80475819	      0.29664495	      0.21957274	     17.64603766	      0.00000000	    -39.85729954	     40.64583466	     46.67117621	     -5.93716160	      0.00000000	    -39.45873056	     24.09343696	     -5.00000214
      3.96000000	     -3.81997253	     -8.66868540	      5.69833530	      2.29778683	      0.80646485	      0.29389929	     -3.47428950	     17.79093219	      0.00000000	    -37.93129766	     38.37715410	     44.60508614	     -5.69585303	      0.00000000	    -40.84533605	     25.68518313	     -5.00000214
